REM DIRINDEX 1\2,1\3,1\4,1\5,1\6
REM DIRNAME cjc091,folder01,folder02,folder03,folder04,folder05
TITLE ""
FILE "CD2-34.mp3" MP3
  TRACK 01 AUDIO
    TITLE "6:cjc091_2159"
    INDEX 01 00:00:00
  TRACK 02 AUDIO
    TITLE "0:"
    INDEX 01 00:02:04
  TRACK 03 AUDIO
    TITLE "2:cjc091_2160"
    INDEX 01 00:03:23
  TRACK 04 AUDIO
    TITLE "0:"
    INDEX 01 00:04:46
  TRACK 05 AUDIO
    TITLE "3:cjc091_2161"
    INDEX 01 00:04:70
  TRACK 06 AUDIO
    TITLE "0:"
    INDEX 01 00:06:35
  TRACK 07 AUDIO
    TITLE "4:cjc091_2162"
    INDEX 01 00:06:59
  TRACK 08 AUDIO
    TITLE "0:"
    INDEX 01 00:10:16
  TRACK 09 AUDIO
    TITLE "2:cjc091_2163"
    INDEX 01 00:11:33
  TRACK 10 AUDIO
    TITLE "0:"
    INDEX 01 00:12:46
  TRACK 11 AUDIO
    TITLE "3:cjc091_2164"
    INDEX 01 00:12:52
  TRACK 12 AUDIO
    TITLE "0:"
    INDEX 01 00:13:55
  TRACK 13 AUDIO
    TITLE "4:cjc091_2165"
    INDEX 01 00:14:00
  TRACK 14 AUDIO
    TITLE "0:"
    INDEX 01 00:16:49
  TRACK 15 AUDIO
    TITLE "2:cjc091_2166"
    INDEX 01 00:17:65
  TRACK 16 AUDIO
    TITLE "0:"
    INDEX 01 00:19:28
  TRACK 17 AUDIO
    TITLE "3:cjc091_2167"
    INDEX 01 00:19:48
  TRACK 18 AUDIO
    TITLE "0:"
    INDEX 01 00:21:31
  TRACK 19 AUDIO
    TITLE "4:cjc091_2168"
    INDEX 01 00:21:55
  TRACK 20 AUDIO
    TITLE "0:"
    INDEX 01 00:25:05
  TRACK 21 AUDIO
    TITLE "2:cjc091_2169"
    INDEX 01 00:26:18
  TRACK 22 AUDIO
    TITLE "0:"
    INDEX 01 00:28:25
  TRACK 23 AUDIO
    TITLE "3:cjc091_2170"
    INDEX 01 00:28:51
  TRACK 24 AUDIO
    TITLE "0:"
    INDEX 01 00:30:44
  TRACK 25 AUDIO
    TITLE "4:cjc091_2171"
    INDEX 01 00:30:63
  TRACK 26 AUDIO
    TITLE "0:"
    INDEX 01 00:36:07
  TRACK 27 AUDIO
    TITLE "2:cjc091_2172"
    INDEX 01 00:37:22
  TRACK 28 AUDIO
    TITLE "0:"
    INDEX 01 00:39:54
  TRACK 29 AUDIO
    TITLE "3:cjc091_2173"
    INDEX 01 00:40:01
  TRACK 30 AUDIO
    TITLE "0:"
    INDEX 01 00:42:04
  TRACK 31 AUDIO
    TITLE "4:cjc091_2174"
    INDEX 01 00:42:25
  TRACK 32 AUDIO
    TITLE "0:"
    INDEX 01 00:47:23
  TRACK 33 AUDIO
    TITLE "2:cjc091_2175"
    INDEX 01 00:48:36
  TRACK 34 AUDIO
    TITLE "0:"
    INDEX 01 00:49:72
  TRACK 35 AUDIO
    TITLE "3:cjc091_2176"
    INDEX 01 00:50:15
  TRACK 36 AUDIO
    TITLE "0:"
    INDEX 01 00:51:73
  TRACK 37 AUDIO
    TITLE "4:cjc091_2177"
    INDEX 01 00:52:16
  TRACK 38 AUDIO
    TITLE "0:"
    INDEX 01 00:56:49
  TRACK 39 AUDIO
    TITLE "2:cjc091_2178"
    INDEX 01 00:57:62
  TRACK 40 AUDIO
    TITLE "0:"
    INDEX 01 00:59:22
  TRACK 41 AUDIO
    TITLE "3:cjc091_2179"
    INDEX 01 00:59:45
  TRACK 42 AUDIO
    TITLE "0:"
    INDEX 01 01:01:17
  TRACK 43 AUDIO
    TITLE "4:cjc091_2180"
    INDEX 01 01:01:38
  TRACK 44 AUDIO
    TITLE "0:"
    INDEX 01 01:04:37
  TRACK 45 AUDIO
    TITLE "2:cjc091_2181"
    INDEX 01 01:05:54
  TRACK 46 AUDIO
    TITLE "0:"
    INDEX 01 01:07:43
  TRACK 47 AUDIO
    TITLE "3:cjc091_2182"
    INDEX 01 01:07:61
  TRACK 48 AUDIO
    TITLE "0:"
    INDEX 01 01:09:44
  TRACK 49 AUDIO
    TITLE "4:cjc091_2183"
    INDEX 01 01:09:69
  TRACK 50 AUDIO
    TITLE "0:"
    INDEX 01 01:13:61
  TRACK 51 AUDIO
    TITLE "2:cjc091_2184"
    INDEX 01 01:15:03
  TRACK 52 AUDIO
    TITLE "0:"
    INDEX 01 01:16:05
  TRACK 53 AUDIO
    TITLE "3:cjc091_2185"
    INDEX 01 01:16:18
  TRACK 54 AUDIO
    TITLE "0:"
    INDEX 01 01:17:43
  TRACK 55 AUDIO
    TITLE "4:cjc091_2186"
    INDEX 01 01:17:63
  TRACK 56 AUDIO
    TITLE "0:"
    INDEX 01 01:20:00
  TRACK 57 AUDIO
    TITLE "2:cjc091_2187"
    INDEX 01 01:21:21
  TRACK 58 AUDIO
    TITLE "0:"
    INDEX 01 01:22:44
  TRACK 59 AUDIO
    TITLE "3:cjc091_2188"
    INDEX 01 01:22:72
  TRACK 60 AUDIO
    TITLE "0:"
    INDEX 01 01:24:47
  TRACK 61 AUDIO
    TITLE "4:cjc091_2189"
    INDEX 01 01:24:69
  TRACK 62 AUDIO
    TITLE "0:"
    INDEX 01 01:27:14
  TRACK 63 AUDIO
    TITLE "2:cjc091_2190"
    INDEX 01 01:28:24
  TRACK 64 AUDIO
    TITLE "0:"
    INDEX 01 01:29:68
  TRACK 65 AUDIO
    TITLE "3:cjc091_2191"
    INDEX 01 01:30:15
  TRACK 66 AUDIO
    TITLE "0:"
    INDEX 01 01:31:38
  TRACK 67 AUDIO
    TITLE "4:cjc091_2192"
    INDEX 01 01:31:55
  TRACK 68 AUDIO
    TITLE "0:"
    INDEX 01 01:33:70
  TRACK 69 AUDIO
    TITLE "2:cjc091_2193"
    INDEX 01 01:35:00
  TRACK 70 AUDIO
    TITLE "0:"
    INDEX 01 01:36:17
  TRACK 71 AUDIO
    TITLE "3:cjc091_2194"
    INDEX 01 01:36:39
  TRACK 72 AUDIO
    TITLE "0:"
    INDEX 01 01:38:02
  TRACK 73 AUDIO
    TITLE "4:cjc091_2195"
    INDEX 01 01:38:22
  TRACK 74 AUDIO
    TITLE "0:"
    INDEX 01 01:42:16
  TRACK 75 AUDIO
    TITLE "2:cjc091_2196"
    INDEX 01 01:43:29
  TRACK 76 AUDIO
    TITLE "0:"
    INDEX 01 01:44:38
  TRACK 77 AUDIO
    TITLE "3:cjc091_2197"
    INDEX 01 01:44:60
  TRACK 78 AUDIO
    TITLE "0:"
    INDEX 01 01:46:37
  TRACK 79 AUDIO
    TITLE "4:cjc091_2198"
    INDEX 01 01:46:59
  TRACK 80 AUDIO
    TITLE "0:"
    INDEX 01 01:49:71
  TRACK 81 AUDIO
    TITLE "2:cjc091_2199"
    INDEX 01 01:51:11
  TRACK 82 AUDIO
    TITLE "0:"
    INDEX 01 01:52:71
  TRACK 83 AUDIO
    TITLE "3:cjc091_2200"
    INDEX 01 01:53:10
  TRACK 84 AUDIO
    TITLE "0:"
    INDEX 01 01:55:07
  TRACK 85 AUDIO
    TITLE "4:cjc091_2201"
    INDEX 01 01:55:30
  TRACK 86 AUDIO
    TITLE "0:"
    INDEX 01 02:00:37
  TRACK 87 AUDIO
    TITLE "2:cjc091_2202"
    INDEX 01 02:01:46
  TRACK 88 AUDIO
    TITLE "0:"
    INDEX 01 02:04:10
  TRACK 89 AUDIO
    TITLE "3:cjc091_2203"
    INDEX 01 02:04:33
  TRACK 90 AUDIO
    TITLE "0:"
    INDEX 01 02:06:40
  TRACK 91 AUDIO
    TITLE "4:cjc091_2204"
    INDEX 01 02:06:63
  TRACK 92 AUDIO
    TITLE "0:"
    INDEX 01 02:11:63
